{"asset":{"generator":"3D Builder","version":"2.0"},"scene":0,"scenes":[{"nodes":[0]}],"nodes":[{"mesh":0,"matrix":[0.99999994039535522,0,0,0,0,-1.1920928244535389E-7,-0.99999982118606567,0,0,0.99999982118606567,-1.1920928244535389E-7,0,0,-0.0010779191507026553,1.2849799002623286E-10,1]}],"meshes":[{"primitives":[{"attributes":{"POSITION":0,"COLOR_0":1},"mode":4,"indices":2}]}],"accessors":[{"bufferView":0,"byteOffset":0,"count":292,"componentType":5126,"type":"VEC3","min":[-0.054987218230962753,-0.032497670501470566,0.0010779192671179771],"max":[0.072153463959693909,0.0026681071612983942,0.0039498242549598217]},{"bufferView":1,"byteOffset":0,"count":292,"componentType":5121,"type":"VEC4","normalized":true},{"bufferView":2,"byteOffset":0,"count":1764,"componentType":5125,"type":"SCALAR"}],"bufferViews":[{"buffer":0,"byteOffset":0,"byteLength":3504,"byteStride":12,"target":34962},{"buffer":0,"byteOffset":3504,"byteLength":1168,"byteStride":4,"target":34962},{"buffer":0,"byteOffset":4672,"byteLength":7056,"target":34963}],"buffers":[{"byteLength":11728,"uri":"A1.bin"}]}