{
    "asset" : {
        "generator" : "Khronos glTF Blender I/O v1.2.75",
        "version" : "2.0"
    },
    "scene" : 0,
    "scenes" : [
        {
            "name" : "Scene",
            "nodes" : [
                0
            ]
        }
    ],
    "nodes" : [
        {
            "mesh" : 0,
            "name" : "scene5_ui",
            "rotation" : [
                1,
                0,
                0,
                -4.371138828673793e-08
            ],
            "translation" : [
                0,
                210,
                0
            ]
        }
    ],
    "materials" : [
        {
            "doubleSided" : true,
            "emissiveFactor" : [
                0,
                0,
                0
            ],
            "name" : "Material.004",
            "pbrMetallicRoughness" : {
                "baseColorFactor" : [
                    0.002333841286599636,
                    0.8000000715255737,
                    0.017408547922968864,
                    1
                ],
                "metallicFactor" : 0,
                "roughnessFactor" : 0.5
            }
        },
        {
            "doubleSided" : true,
            "emissiveFactor" : [
                0,
                0,
                0
            ],
            "name" : "Material.005",
            "pbrMetallicRoughness" : {
                "baseColorFactor" : [
                    0.3363463282585144,
                    0.8000000715255737,
                    0.1078748106956482,
                    1
                ],
                "metallicFactor" : 0,
                "roughnessFactor" : 0.5
            }
        },
        {
            "doubleSided" : true,
            "emissiveFactor" : [
                0,
                0,
                0
            ],
            "name" : "Material.006",
            "pbrMetallicRoughness" : {
                "baseColorFactor" : [
                    0.8000000715255737,
                    0.0017471123719587922,
                    0,
                    1
                ],
                "metallicFactor" : 0,
                "roughnessFactor" : 0.5
            }
        },
        {
            "doubleSided" : true,
            "emissiveFactor" : [
                0,
                0,
                0
            ],
            "name" : "Material.007",
            "pbrMetallicRoughness" : {
                "baseColorFactor" : [
                    0,
                    0.122852623462677,
                    0.8000000715255737,
                    1
                ],
                "metallicFactor" : 0,
                "roughnessFactor" : 0.5
            }
        },
        {
            "doubleSided" : true,
            "emissiveFactor" : [
                0,
                0,
                0
            ],
            "name" : "Material.008",
            "pbrMetallicRoughness" : {
                "baseColorFactor" : [
                    0,
                    0.002927568508312106,
                    0.8000000715255737,
                    1
                ],
                "metallicFactor" : 0,
                "roughnessFactor" : 0.5
            }
        }
    ],
    "meshes" : [
        {
            "name" : "scene5_ui",
            "primitives" : [
                {
                    "attributes" : {
                        "POSITION" : 0,
                        "NORMAL" : 1
                    },
                    "indices" : 2,
                    "material" : 0
                },
                {
                    "attributes" : {
                        "POSITION" : 3,
                        "NORMAL" : 4
                    },
                    "indices" : 5,
                    "material" : 1
                },
                {
                    "attributes" : {
                        "POSITION" : 6,
                        "NORMAL" : 7
                    },
                    "indices" : 8,
                    "material" : 2
                },
                {
                    "attributes" : {
                        "POSITION" : 9,
                        "NORMAL" : 10
                    },
                    "indices" : 11,
                    "material" : 3
                },
                {
                    "attributes" : {
                        "POSITION" : 12,
                        "NORMAL" : 13
                    },
                    "indices" : 14,
                    "material" : 4
                }
            ]
        }
    ],
    "accessors" : [
        {
            "bufferView" : 0,
            "componentType" : 5126,
            "count" : 12762,
            "max" : [
                -0.13503265380859375,
                212.49188232421875,
                23.848987579345703
            ],
            "min" : [
                -113.11913299560547,
                190.2587890625,
                -38.435062408447266
            ],
            "type" : "VEC3"
        },
        {
            "bufferView" : 1,
            "componentType" : 5126,
            "count" : 12762,
            "type" : "VEC3"
        },
        {
            "bufferView" : 2,
            "componentType" : 5123,
            "count" : 12762,
            "type" : "SCALAR"
        },
        {
            "bufferView" : 3,
            "componentType" : 5126,
            "count" : 33241,
            "max" : [
                -3.1929051876068115,
                199.86431884765625,
                -3.472254753112793
            ],
            "min" : [
                -4.141354084014893,
                188.88497924804688,
                -8.57275676727295
            ],
            "type" : "VEC3"
        },
        {
            "bufferView" : 4,
            "componentType" : 5126,
            "count" : 33241,
            "type" : "VEC3"
        },
        {
            "bufferView" : 5,
            "componentType" : 5123,
            "count" : 40656,
            "type" : "SCALAR"
        },
        {
            "bufferView" : 6,
            "componentType" : 5126,
            "count" : 20038,
            "max" : [
                -3.2923660278320312,
                208.2591094970703,
                15.895147323608398
            ],
            "min" : [
                -4.294548034667969,
                200.40335083007812,
                -1.571371078491211
            ],
            "type" : "VEC3"
        },
        {
            "bufferView" : 7,
            "componentType" : 5126,
            "count" : 20038,
            "type" : "VEC3"
        },
        {
            "bufferView" : 8,
            "componentType" : 5123,
            "count" : 20040,
            "type" : "SCALAR"
        },
        {
            "bufferView" : 9,
            "componentType" : 5126,
            "count" : 4212,
            "max" : [
                -4.16310453414917,
                203.31613159179688,
                16.31650733947754
            ],
            "min" : [
                -6.049131870269775,
                186.2338409423828,
                10.053909301757812
            ],
            "type" : "VEC3"
        },
        {
            "bufferView" : 10,
            "componentType" : 5126,
            "count" : 4212,
            "type" : "VEC3"
        },
        {
            "bufferView" : 11,
            "componentType" : 5123,
            "count" : 4212,
            "type" : "SCALAR"
        },
        {
            "bufferView" : 12,
            "componentType" : 5126,
            "count" : 840,
            "max" : [
                63.5792121887207,
                205.6085968017578,
                91.78492736816406
            ],
            "min" : [
                -5.5879716873168945,
                132.91952514648438,
                10.052576065063477
            ],
            "type" : "VEC3"
        },
        {
            "bufferView" : 13,
            "componentType" : 5126,
            "count" : 840,
            "type" : "VEC3"
        },
        {
            "bufferView" : 14,
            "componentType" : 5123,
            "count" : 840,
            "type" : "SCALAR"
        }
    ],
    "bufferViews" : [
        {
            "buffer" : 0,
            "byteLength" : 153144,
            "byteOffset" : 0
        },
        {
            "buffer" : 0,
            "byteLength" : 153144,
            "byteOffset" : 153144
        },
        {
            "buffer" : 0,
            "byteLength" : 25524,
            "byteOffset" : 306288
        },
        {
            "buffer" : 0,
            "byteLength" : 398892,
            "byteOffset" : 331812
        },
        {
            "buffer" : 0,
            "byteLength" : 398892,
            "byteOffset" : 730704
        },
        {
            "buffer" : 0,
            "byteLength" : 81312,
            "byteOffset" : 1129596
        },
        {
            "buffer" : 0,
            "byteLength" : 240456,
            "byteOffset" : 1210908
        },
        {
            "buffer" : 0,
            "byteLength" : 240456,
            "byteOffset" : 1451364
        },
        {
            "buffer" : 0,
            "byteLength" : 40080,
            "byteOffset" : 1691820
        },
        {
            "buffer" : 0,
            "byteLength" : 50544,
            "byteOffset" : 1731900
        },
        {
            "buffer" : 0,
            "byteLength" : 50544,
            "byteOffset" : 1782444
        },
        {
            "buffer" : 0,
            "byteLength" : 8424,
            "byteOffset" : 1832988
        },
        {
            "buffer" : 0,
            "byteLength" : 10080,
            "byteOffset" : 1841412
        },
        {
            "buffer" : 0,
            "byteLength" : 10080,
            "byteOffset" : 1851492
        },
        {
            "buffer" : 0,
            "byteLength" : 1680,
            "byteOffset" : 1861572
        }
    ],
    "buffers" : [
        {
            "byteLength" : 1863252,
            "uri" : "data:application/octet-stream;base64,"
        }
    ]
}
