{
    "asset" : {
        "generator" : "Khronos glTF Blender I/O v1.2.75",
        "version" : "2.0"
    },
    "scene" : 0,
    "scenes" : [
        {
            "name" : "Scene",
            "nodes" : [
                0,
                1,
                2,
                3,
                4,
                5
            ]
        }
    ],
    "nodes" : [
        {
            "mesh" : 0,
            "name" : "A1",
            "rotation" : [
                -0.10023694485425949,
                0.1397567093372345,
                0.01335148885846138,
                0.9850088357925415
            ],
            "translation" : [
                -0.08302061259746552,
                0.04599577933549881,
                -0.00755070336163044
            ]
        },
        {
            "mesh" : 1,
            "name" : "B1",
            "rotation" : [
                0.021151503548026085,
                -0.9853333234786987,
                0.0830485075712204,
                0.14755955338478088
            ],
            "translation" : [
                -0.06772181391716003,
                0.059437450021505356,
                0.04587719962000847
            ]
        },
        {
            "mesh" : 2,
            "name" : "C1",
            "rotation" : [
                -0.11785431951284409,
                0.9877262115478516,
                0.0907755121588707,
                0.047614116221666336
            ],
            "translation" : [
                0.04654304310679436,
                0.019639909267425537,
                0.05818602070212364
            ]
        },
        {
            "mesh" : 3,
            "name" : "D2",
            "rotation" : [
                0.11669373512268066,
                -0.730301558971405,
                0.041954897344112396,
                0.6717752814292908
            ],
            "translation" : [
                0.047033630311489105,
                0.03131471574306488,
                0.0036276003811508417
            ]
        },
        {
            "mesh" : 4,
            "name" : "S1",
            "rotation" : [
                1,
                0,
                0,
                -4.371138828673793e-08
            ],
            "scale" : [
                0.0010000000474974513,
                0.0010000000474974513,
                0.0010000000474974513
            ],
            "translation" : [
                -0.13999998569488525,
                0,
                0
            ]
        },
        {
            "name" : "Light",
            "rotation" : [
                0.16907575726509094,
                0.7558803558349609,
                -0.27217137813568115,
                0.570947527885437
            ],
            "translation" : [
                4.076245307922363,
                5.903861999511719,
                -1.0054539442062378
            ]
        }
    ],
    "animations" : [
        {
            "channels" : [
                {
                    "sampler" : 0,
                    "target" : {
                        "node" : 0,
                        "path" : "translation"
                    }
                },
                {
                    "sampler" : 1,
                    "target" : {
                        "node" : 0,
                        "path" : "rotation"
                    }
                }
            ],
            "name" : "A1",
            "samplers" : [
                {
                    "input" : 15,
                    "interpolation" : "LINEAR",
                    "output" : 16
                },
                {
                    "input" : 17,
                    "interpolation" : "LINEAR",
                    "output" : 18
                }
            ]
        },
        {
            "channels" : [
                {
                    "sampler" : 0,
                    "target" : {
                        "node" : 1,
                        "path" : "translation"
                    }
                },
                {
                    "sampler" : 1,
                    "target" : {
                        "node" : 1,
                        "path" : "rotation"
                    }
                }
            ],
            "name" : "B1",
            "samplers" : [
                {
                    "input" : 19,
                    "interpolation" : "LINEAR",
                    "output" : 20
                },
                {
                    "input" : 17,
                    "interpolation" : "LINEAR",
                    "output" : 21
                }
            ]
        },
        {
            "channels" : [
                {
                    "sampler" : 0,
                    "target" : {
                        "node" : 2,
                        "path" : "translation"
                    }
                },
                {
                    "sampler" : 1,
                    "target" : {
                        "node" : 2,
                        "path" : "rotation"
                    }
                }
            ],
            "name" : "C1",
            "samplers" : [
                {
                    "input" : 17,
                    "interpolation" : "LINEAR",
                    "output" : 22
                },
                {
                    "input" : 17,
                    "interpolation" : "LINEAR",
                    "output" : 23
                }
            ]
        },
        {
            "channels" : [
                {
                    "sampler" : 0,
                    "target" : {
                        "node" : 3,
                        "path" : "translation"
                    }
                },
                {
                    "sampler" : 1,
                    "target" : {
                        "node" : 3,
                        "path" : "rotation"
                    }
                }
            ],
            "name" : "D2",
            "samplers" : [
                {
                    "input" : 17,
                    "interpolation" : "LINEAR",
                    "output" : 24
                },
                {
                    "input" : 17,
                    "interpolation" : "LINEAR",
                    "output" : 25
                }
            ]
        }
    ],
    "materials" : [
        {
            "doubleSided" : true,
            "emissiveFactor" : [
                0,
                0,
                0
            ],
            "name" : "Material.001",
            "pbrMetallicRoughness" : {
                "baseColorFactor" : [
                    0.026886099949479103,
                    0.8000000715255737,
                    0,
                    1
                ],
                "metallicFactor" : 0,
                "roughnessFactor" : 0.5
            }
        },
        {
            "doubleSided" : true,
            "emissiveFactor" : [
                0,
                0,
                0
            ],
            "name" : "Material.002",
            "pbrMetallicRoughness" : {
                "baseColorFactor" : [
                    0.8000000715255737,
                    0,
                    0.01620982028543949,
                    1
                ],
                "metallicFactor" : 0,
                "roughnessFactor" : 0.5
            }
        },
        {
            "doubleSided" : true,
            "emissiveFactor" : [
                0,
                0,
                0
            ],
            "name" : "Material.003",
            "pbrMetallicRoughness" : {
                "baseColorFactor" : [
                    0.8000000715255737,
                    0.3138309717178345,
                    0.12456472963094711,
                    1
                ],
                "metallicFactor" : 0,
                "roughnessFactor" : 0.5
            }
        }
    ],
    "meshes" : [
        {
            "name" : "A1.013",
            "primitives" : [
                {
                    "attributes" : {
                        "POSITION" : 0,
                        "NORMAL" : 1
                    },
                    "indices" : 2,
                    "material" : 0
                }
            ]
        },
        {
            "name" : "B1.008",
            "primitives" : [
                {
                    "attributes" : {
                        "POSITION" : 3,
                        "NORMAL" : 4
                    },
                    "indices" : 5,
                    "material" : 0
                }
            ]
        },
        {
            "name" : "C1.027",
            "primitives" : [
                {
                    "attributes" : {
                        "POSITION" : 6,
                        "NORMAL" : 7
                    },
                    "indices" : 8,
                    "material" : 1
                }
            ]
        },
        {
            "name" : "D2.008",
            "primitives" : [
                {
                    "attributes" : {
                        "POSITION" : 9,
                        "NORMAL" : 10
                    },
                    "indices" : 11,
                    "material" : 1
                }
            ]
        },
        {
            "name" : "S1.001",
            "primitives" : [
                {
                    "attributes" : {
                        "POSITION" : 12,
                        "NORMAL" : 13
                    },
                    "indices" : 14,
                    "material" : 2
                }
            ]
        }
    ],
    "accessors" : [
        {
            "bufferView" : 0,
            "componentType" : 5126,
            "count" : 3419,
            "max" : [
                0.057959359139204025,
                0.0009999999310821295,
                0.03022603504359722
            ],
            "min" : [
                -0.05325314402580261,
                -0.0009999999310821295,
                -0.005373928230255842
            ],
            "type" : "VEC3"
        },
        {
            "bufferView" : 1,
            "componentType" : 5126,
            "count" : 3419,
            "type" : "VEC3"
        },
        {
            "bufferView" : 2,
            "componentType" : 5123,
            "count" : 6228,
            "type" : "SCALAR"
        },
        {
            "bufferView" : 3,
            "componentType" : 5126,
            "count" : 5161,
            "max" : [
                0.051936328411102295,
                0.0010000027250498533,
                0.03036797046661377
            ],
            "min" : [
                -0.05814220756292343,
                -0.0010000003967434168,
                -0.00751997297629714
            ],
            "type" : "VEC3"
        },
        {
            "bufferView" : 4,
            "componentType" : 5126,
            "count" : 5161,
            "type" : "VEC3"
        },
        {
            "bufferView" : 5,
            "componentType" : 5123,
            "count" : 6228,
            "type" : "SCALAR"
        },
        {
            "bufferView" : 6,
            "componentType" : 5126,
            "count" : 404,
            "max" : [
                0.036036569625139236,
                0.009264015592634678,
                0.027796460315585136
            ],
            "min" : [
                -0.08369683474302292,
                -0.002735984046012163,
                0.019924765452742577
            ],
            "type" : "VEC3"
        },
        {
            "bufferView" : 7,
            "componentType" : 5126,
            "count" : 404,
            "type" : "VEC3"
        },
        {
            "bufferView" : 8,
            "componentType" : 5123,
            "count" : 420,
            "type" : "SCALAR"
        },
        {
            "bufferView" : 9,
            "componentType" : 5126,
            "count" : 380,
            "max" : [
                0.029132980853319168,
                0.006086676847189665,
                0.03305903077125549
            ],
            "min" : [
                0.022467847913503647,
                -0.005913321394473314,
                -0.08663336932659149
            ],
            "type" : "VEC3"
        },
        {
            "bufferView" : 10,
            "componentType" : 5126,
            "count" : 380,
            "type" : "VEC3"
        },
        {
            "bufferView" : 11,
            "componentType" : 5123,
            "count" : 420,
            "type" : "SCALAR"
        },
        {
            "bufferView" : 12,
            "componentType" : 5126,
            "count" : 468,
            "max" : [
                192.5,
                2.6226832687825663e-06,
                60
            ],
            "min" : [
                27.50000762939453,
                -10.00000286102295,
                -60
            ],
            "type" : "VEC3"
        },
        {
            "bufferView" : 13,
            "componentType" : 5126,
            "count" : 468,
            "type" : "VEC3"
        },
        {
            "bufferView" : 14,
            "componentType" : 5123,
            "count" : 588,
            "type" : "SCALAR"
        },
        {
            "bufferView" : 15,
            "componentType" : 5126,
            "count" : 498,
            "max" : [
                20.708333333333332
            ],
            "min" : [
                0
            ],
            "type" : "SCALAR"
        },
        {
            "bufferView" : 16,
            "componentType" : 5126,
            "count" : 498,
            "type" : "VEC3"
        },
        {
            "bufferView" : 17,
            "componentType" : 5126,
            "count" : 496,
            "max" : [
                20.625
            ],
            "min" : [
                0
            ],
            "type" : "SCALAR"
        },
        {
            "bufferView" : 18,
            "componentType" : 5126,
            "count" : 496,
            "type" : "VEC4"
        },
        {
            "bufferView" : 19,
            "componentType" : 5126,
            "count" : 500,
            "max" : [
                20.625
            ],
            "min" : [
                -0.16666666666666666
            ],
            "type" : "SCALAR"
        },
        {
            "bufferView" : 20,
            "componentType" : 5126,
            "count" : 500,
            "type" : "VEC3"
        },
        {
            "bufferView" : 21,
            "componentType" : 5126,
            "count" : 496,
            "type" : "VEC4"
        },
        {
            "bufferView" : 22,
            "componentType" : 5126,
            "count" : 496,
            "type" : "VEC3"
        },
        {
            "bufferView" : 23,
            "componentType" : 5126,
            "count" : 496,
            "type" : "VEC4"
        },
        {
            "bufferView" : 24,
            "componentType" : 5126,
            "count" : 496,
            "type" : "VEC3"
        },
        {
            "bufferView" : 25,
            "componentType" : 5126,
            "count" : 496,
            "type" : "VEC4"
        }
    ],
    "bufferViews" : [
        {
            "buffer" : 0,
            "byteLength" : 41028,
            "byteOffset" : 0
        },
        {
            "buffer" : 0,
            "byteLength" : 41028,
            "byteOffset" : 41028
        },
        {
            "buffer" : 0,
            "byteLength" : 12456,
            "byteOffset" : 82056
        },
        {
            "buffer" : 0,
            "byteLength" : 61932,
            "byteOffset" : 94512
        },
        {
            "buffer" : 0,
            "byteLength" : 61932,
            "byteOffset" : 156444
        },
        {
            "buffer" : 0,
            "byteLength" : 12456,
            "byteOffset" : 218376
        },
        {
            "buffer" : 0,
            "byteLength" : 4848,
            "byteOffset" : 230832
        },
        {
            "buffer" : 0,
            "byteLength" : 4848,
            "byteOffset" : 235680
        },
        {
            "buffer" : 0,
            "byteLength" : 840,
            "byteOffset" : 240528
        },
        {
            "buffer" : 0,
            "byteLength" : 4560,
            "byteOffset" : 241368
        },
        {
            "buffer" : 0,
            "byteLength" : 4560,
            "byteOffset" : 245928
        },
        {
            "buffer" : 0,
            "byteLength" : 840,
            "byteOffset" : 250488
        },
        {
            "buffer" : 0,
            "byteLength" : 5616,
            "byteOffset" : 251328
        },
        {
            "buffer" : 0,
            "byteLength" : 5616,
            "byteOffset" : 256944
        },
        {
            "buffer" : 0,
            "byteLength" : 1176,
            "byteOffset" : 262560
        },
        {
            "buffer" : 0,
            "byteLength" : 1992,
            "byteOffset" : 263736
        },
        {
            "buffer" : 0,
            "byteLength" : 5976,
            "byteOffset" : 265728
        },
        {
            "buffer" : 0,
            "byteLength" : 1984,
            "byteOffset" : 271704
        },
        {
            "buffer" : 0,
            "byteLength" : 7936,
            "byteOffset" : 273688
        },
        {
            "buffer" : 0,
            "byteLength" : 2000,
            "byteOffset" : 281624
        },
        {
            "buffer" : 0,
            "byteLength" : 6000,
            "byteOffset" : 283624
        },
        {
            "buffer" : 0,
            "byteLength" : 7936,
            "byteOffset" : 289624
        },
        {
            "buffer" : 0,
            "byteLength" : 5952,
            "byteOffset" : 297560
        },
        {
            "buffer" : 0,
            "byteLength" : 7936,
            "byteOffset" : 303512
        },
        {
            "buffer" : 0,
            "byteLength" : 5952,
            "byteOffset" : 311448
        },
        {
            "buffer" : 0,
            "byteLength" : 7936,
            "byteOffset" : 317400
        }
    ],
    "buffers" : [
        {
            "byteLength" : 325336,
            "uri" : "data:application/octet-stream;base64,"
        }
    ]
}
